<?xml version="1.0" ?><svg viewBox="0 0 64 64" xmlns="http://www.w3.org/2000/svg"><title/><g id="Moon"><circle cx="32" cy="32" r="30" style="fill:#c6cbef"/><path d="M62,32A29.9883,29.9883,0,0,1,8.01,49.99,29.9825,29.9825,0,0,0,49.99,8.01,29.9618,29.9618,0,0,1,62,32Z" style="fill:#0f3460;opacity:0.15"/><circle cx="23" cy="16" r="6" style="fill:#949bdd"/><circle cx="14" cy="28" r="5" style="fill:#949bdd"/><circle cx="15" cy="41" r="4" style="fill:#949bdd"/><path d="M32,2A30,30,0,1,0,62,32,30.034,30.034,0,0,0,32,2Zm0,58A28,28,0,1,1,60,32,28.0314,28.0314,0,0,1,32,60Z" style="fill:#0f3460"/><path d="M23,10a6,6,0,1,0,6,6A6.0066,6.0066,0,0,0,23,10Zm0,10a4,4,0,1,1,4-4A4.0042,4.0042,0,0,1,23,20Z" style="fill:#0f3460"/><path d="M14,23a5,5,0,1,0,5,5A5.0059,5.0059,0,0,0,14,23Zm0,8a3,3,0,1,1,3-3A3.0033,3.0033,0,0,1,14,31Z" style="fill:#0f3460"/><path d="M15,37a4,4,0,1,0,4,4A4.0042,4.0042,0,0,0,15,37Zm0,6a2,2,0,1,1,2-2A2.0023,2.0023,0,0,1,15,43Z" style="fill:#0f3460"/></g></svg>